<svg width="512" height="512" viewBox="0 0 512 512" fill="none" xmlns="http://www.w3.org/2000/svg">
<mask id="mask0_294_458" style="mask-type:alpha" maskUnits="userSpaceOnUse" x="0" y="0" width="512" height="512">
<circle cx="256" cy="256" r="256" fill="#D9D9D9"/>
</mask>
<g mask="url(#mask0_294_458)">
<circle cx="254.714" cy="254.714" r="277.869" fill="url(#paint0_radial_294_458)"/>
<g filter="url(#filter0_f_294_458)">
<path d="M205.22 392.362C205.22 481.882 164.133 502.995 74.6131 502.995C-14.907 502.995 -73.3267 403.41 -73.3267 313.889C-73.3267 224.369 -25.1985 59.1759 64.3216 59.1759C64.3216 187.819 23.1558 321.608 205.22 392.362Z" fill="#79379C"/>
</g>
<g filter="url(#filter1_f_294_458)">
<circle cx="445.105" cy="295.879" r="131.216" fill="#FF9FE1"/>
</g>
<g filter="url(#filter2_f_294_458)">
<path d="M469.324 129.18C548.48 259.835 455.133 419.682 430.833 434.404C406.533 449.126 475.741 338.335 381.326 182.493C286.91 26.6522 151.897 28.8272 176.197 14.1052C200.497 -0.616793 390.167 -1.47436 469.324 129.18Z" fill="#FF27BC"/>
</g>
<path d="M210.975 357.628C226.412 401.881 185.675 479.839 163.377 513.286L199.397 531.297C211.833 487.558 232.844 414.231 253.427 403.94C294.85 383.229 274.259 469.679 310.03 477.266C352.482 486.271 349.91 451.538 370.493 439.96C386.959 430.698 452.824 460.972 483.699 477.266L492.704 414.231C474.694 412.087 432.756 403.682 409.085 387.216C379.498 366.633 402.653 337.045 357.628 310.03C312.603 283.015 240.563 324.181 222.553 299.739C204.543 275.297 218.694 244.422 210.975 198.111C203.257 151.799 150.513 146.653 142.794 95.196C138.825 68.7343 122.211 38.593 113.206 27.0151L66.8945 59.1759C87.9063 75.8996 129.93 118.609 129.93 155.658C129.93 201.97 97.769 235.417 120.925 268.864C144.081 302.312 191.679 302.312 210.975 357.628Z" fill="url(#paint1_linear_294_458)"/>
<path d="M180.895 63.0351C195.303 36.2773 157.802 20.5829 151.799 5.14567L204.05 -12.8644C210.483 57.8894 196.332 69.3872 196.332 79.7587C196.332 99.0552 234.131 117.065 234.131 117.065C219.058 76.4838 232.844 12.8643 253.427 -9.00508C257.6 -8.5027 268.864 -6.43222 268.864 -6.43222C247.424 30.0167 234.079 104.15 257.287 127.357C288.161 158.231 283.809 191.678 288.161 239.276C279.156 216.121 276.435 153.226 226.412 131.216C194.251 117.065 162.885 96.4824 180.895 63.0351Z" fill="url(#paint2_linear_294_458)"/>
<path d="M182.673 390.445C193.994 414.115 166.807 468.917 151.799 493.359H135.075C151.754 465.487 182.822 407.426 173.668 398.163C164.514 388.901 102.102 425.178 72.0401 444.475L64.3215 431.611C99.0552 408.026 171.353 366.774 182.673 390.445Z" fill="url(#paint3_linear_294_458)"/>
<g filter="url(#filter3_f_294_458)">
<circle cx="92.6232" cy="167.236" r="133.789" fill="#FF6798"/>
</g>
<path d="M308.744 24.4423C272.724 19.2966 267.882 43.7676 268.865 60.4625C272.724 126.071 421.275 140.285 433.528 222.553C442.533 283.015 425.809 361.487 347.337 393.648C289.891 417.192 322.895 472.121 373.065 455.397C420.724 439.511 480.446 359.389 483.699 258.573C487.558 138.935 353.769 30.8745 308.744 24.4423Z" fill="url(#paint4_linear_294_458)"/>
<g filter="url(#filter4_f_294_458)">
<path d="M425.809 216.12C438.508 265.136 395.052 309.083 368.807 315.883C342.561 322.683 381.506 265.136 368.807 216.12C356.107 167.105 272.207 127.725 298.452 120.925C324.698 114.125 413.11 167.105 425.809 216.12Z" fill="#FF91DD"/>
</g>
<path d="M27.0153 322.895C15.8548 276.16 21.7928 224.028 30.6502 185.404C32.0214 179.425 39.17 180.951 38.6873 187.066C35.3756 229.019 34.434 283.527 43.7389 322.895C52.1611 358.527 79.0378 398.068 104.857 429.001C108.888 433.83 103.821 439.455 99.2642 435.118C69.1591 406.468 37.4598 366.631 27.0153 322.895Z" fill="url(#paint5_linear_294_458)"/>
<path d="M219.979 497.849C175.818 486.839 140.964 466.139 115.732 445.939C110.943 442.106 115.566 436.444 120.822 439.608C151.762 458.233 191.152 478.033 228.984 487.558C257.897 494.837 314.219 480.227 359.562 465.708C365.553 463.789 368.17 469.962 362.376 472.413C318.634 490.916 261.529 508.208 219.979 497.849Z" fill="url(#paint6_linear_294_458)"/>
<path d="M101.628 145.367C101.628 127.871 71.1825 99.9129 56.6029 90.0503L47.5979 101.628C60.891 113.635 87.7346 139.192 88.7637 145.367C90.0502 153.085 63.0351 173.668 54.0301 187.819C45.025 201.97 59.1758 237.99 56.6029 252.141C54.5446 263.461 15.4371 275.725 -3.85938 280.442L-7.86781e-05 299.739C21.0116 293.307 64.8361 277.098 72.0401 263.719C81.0451 246.995 63.0351 223.839 68.1808 203.256C73.3266 182.673 101.628 167.236 101.628 145.367Z" fill="url(#paint7_linear_294_458)"/>
</g>
<defs>
<filter id="filter0_f_294_458" x="-201.97" y="-69.4673" width="535.833" height="701.106" filterUnits="userSpaceOnUse" color-interpolation-filters="sRGB">
<feFlood flood-opacity="0" result="BackgroundImageFix"/>
<feBlend mode="normal" in="SourceGraphic" in2="BackgroundImageFix" result="shape"/>
<feGaussianBlur stdDeviation="64.3216" result="effect1_foregroundBlur_294_458"/>
</filter>
<filter id="filter1_f_294_458" x="185.246" y="36.0201" width="519.719" height="519.719" filterUnits="userSpaceOnUse" color-interpolation-filters="sRGB">
<feFlood flood-opacity="0" result="BackgroundImageFix"/>
<feBlend mode="normal" in="SourceGraphic" in2="BackgroundImageFix" result="shape"/>
<feGaussianBlur stdDeviation="64.3216" result="effect1_foregroundBlur_294_458"/>
</filter>
<filter id="filter2_f_294_458" x="104.111" y="-61.7118" width="465.659" height="566.638" filterUnits="userSpaceOnUse" color-interpolation-filters="sRGB">
<feFlood flood-opacity="0" result="BackgroundImageFix"/>
<feBlend mode="normal" in="SourceGraphic" in2="BackgroundImageFix" result="shape"/>
<feGaussianBlur stdDeviation="34.605" result="effect1_foregroundBlur_294_458"/>
</filter>
<filter id="filter3_f_294_458" x="-271.694" y="-197.081" width="728.635" height="728.635" filterUnits="userSpaceOnUse" color-interpolation-filters="sRGB">
<feFlood flood-opacity="0" result="BackgroundImageFix"/>
<feBlend mode="normal" in="SourceGraphic" in2="BackgroundImageFix" result="shape"/>
<feGaussianBlur stdDeviation="115.264" result="effect1_foregroundBlur_294_458"/>
</filter>
<filter id="filter4_f_294_458" x="211.067" y="38.0005" width="299.348" height="360.764" filterUnits="userSpaceOnUse" color-interpolation-filters="sRGB">
<feFlood flood-opacity="0" result="BackgroundImageFix"/>
<feBlend mode="normal" in="SourceGraphic" in2="BackgroundImageFix" result="shape"/>
<feGaussianBlur stdDeviation="41.1658" result="effect1_foregroundBlur_294_458"/>
</filter>
<radialGradient id="paint0_radial_294_458" cx="0" cy="0" r="1" gradientUnits="userSpaceOnUse" gradientTransform="translate(254.714 254.714) rotate(135.579) scale(270.178)">
<stop stop-color="#E94AA4"/>
<stop offset="1" stop-color="#8C3FA5"/>
</radialGradient>
<linearGradient id="paint1_linear_294_458" x1="105.487" y1="19.2965" x2="279.799" y2="531.297" gradientUnits="userSpaceOnUse">
<stop stop-color="#FABCC4"/>
<stop offset="1" stop-color="#FFEDB8"/>
</linearGradient>
<linearGradient id="paint2_linear_294_458" x1="280.442" y1="-14.1509" x2="221.266" y2="145.367" gradientUnits="userSpaceOnUse">
<stop stop-color="#FEF2A3"/>
<stop offset="1" stop-color="#FDE6BC" stop-opacity="0"/>
</linearGradient>
<linearGradient id="paint3_linear_294_458" x1="75.2918" y1="381.673" x2="105.773" y2="498.341" gradientUnits="userSpaceOnUse">
<stop stop-color="#FABCC4"/>
<stop offset="1" stop-color="#FFEDB8"/>
</linearGradient>
<linearGradient id="paint4_linear_294_458" x1="313.89" y1="271.437" x2="595.618" y2="118.352" gradientUnits="userSpaceOnUse">
<stop stop-color="#F3ECAC" stop-opacity="0"/>
<stop offset="0.843986" stop-color="#FFFDCD"/>
</linearGradient>
<linearGradient id="paint5_linear_294_458" x1="20.583" y1="172.382" x2="118.352" y2="491.417" gradientUnits="userSpaceOnUse">
<stop stop-color="white" stop-opacity="0.43"/>
<stop offset="1" stop-color="white" stop-opacity="0"/>
</linearGradient>
<linearGradient id="paint6_linear_294_458" x1="99.7643" y1="444.12" x2="408.872" y2="517.661" gradientUnits="userSpaceOnUse">
<stop stop-color="white" stop-opacity="0"/>
<stop offset="1" stop-color="white" stop-opacity="0.43"/>
</linearGradient>
<linearGradient id="paint7_linear_294_458" x1="110.633" y1="201.97" x2="-31.5647" y2="219.353" gradientUnits="userSpaceOnUse">
<stop stop-color="#FABCC4" stop-opacity="0.67"/>
<stop offset="1" stop-color="#FFEDB8"/>
</linearGradient>
</defs>
</svg>
