<svg width="228" height="48" viewBox="0 0 228 48" fill="none" xmlns="http://www.w3.org/2000/svg">
<g clip-path="url(#clip0_261_43)">
<path d="M19.8032 29.1616C18.2561 29.1616 16.8541 28.8074 15.5948 28.099C14.3625 27.3906 13.3909 26.4191 12.685 25.1868C11.9766 23.9545 11.6224 22.5377 11.6224 20.9365V8.26441C11.6224 7.79216 11.5044 7.35926 11.2682 6.96572C11.0321 6.57218 10.7173 6.25734 10.3237 6.02121C9.93019 5.78509 9.49729 5.66703 9.02504 5.66703C8.55279 5.66703 8.11989 5.78509 7.72635 6.02121C7.35986 6.25734 7.05732 6.57218 6.8212 6.96572C6.58507 7.35926 6.46701 7.79216 6.46701 8.26441V33.648H0.841797V8.93344C0.841797 7.41091 1.18369 6.03351 1.86501 4.80123C2.54633 3.56895 3.50313 2.58509 4.73542 1.84965C5.9677 1.08962 7.39675 0.708378 9.02258 0.708378C10.6484 0.708378 12.1168 1.08962 13.3491 1.84965C14.5814 2.58509 15.5382 3.56895 16.2195 4.80123C16.9008 6.03351 17.2427 7.41091 17.2427 8.93344V21.6055C17.2427 22.0778 17.3608 22.5107 17.5969 22.9042C17.833 23.2978 18.1356 23.6126 18.5021 23.8487C18.8956 24.0849 19.3285 24.2029 19.8008 24.2029C20.273 24.2029 20.7059 24.0849 21.0994 23.8487C21.493 23.6126 21.8078 23.2978 22.0439 22.9042C22.2801 22.5107 22.3981 22.0778 22.3981 21.6055V8.93344C22.3981 7.41091 22.74 6.03351 23.4214 4.80123C24.1027 3.56895 25.0595 2.58509 26.2918 1.84965C27.5511 1.08962 28.9925 0.708378 30.6183 0.708378C32.2441 0.708378 33.7002 1.08962 34.9054 1.84965C36.1377 2.58509 37.0945 3.56895 37.7758 4.80123C38.4572 6.03351 38.7991 7.41091 38.7991 8.93344V28.7287H33.1738V8.26441C33.1738 7.79216 33.0558 7.35926 32.8197 6.96572C32.6106 6.57218 32.3081 6.25734 31.9145 6.02121C31.521 5.78509 31.0881 5.66703 30.6158 5.66703C30.1436 5.66703 29.7107 5.78509 29.3171 6.02121C28.9236 6.25734 28.6087 6.57218 28.3726 6.96572C28.1365 7.35926 28.0184 7.79216 28.0184 8.26441V20.9365C28.0184 22.5377 27.6519 23.9545 26.9165 25.1868C26.2081 26.4191 25.239 27.3906 24.0067 28.099C22.7745 28.8074 21.37 29.1616 19.7983 29.1616H19.8032ZM53.5127 29.2009C51.4662 29.2009 49.7101 28.7951 48.2416 27.9809C46.7732 27.1668 45.6443 26.0796 44.8596 24.7145C44.0996 23.3494 43.7184 21.8417 43.7184 20.1888V8.65796H49.1074V20.1888C49.1074 21.0029 49.3042 21.7507 49.6978 22.432C50.0913 23.0887 50.6152 23.6126 51.2719 24.0061C51.9533 24.3997 52.701 24.5965 53.5151 24.5965C54.3293 24.5965 55.0622 24.3997 55.719 24.0061C56.4003 23.6126 56.939 23.0887 57.3325 22.432C57.726 21.7507 57.9228 21.0029 57.9228 20.1888V8.65796H63.3119V20.1888C63.3119 21.8417 62.9184 23.3494 62.1313 24.7145C61.3712 26.0796 60.257 27.1668 58.7886 27.9809C57.3473 28.7951 55.5886 29.2009 53.5176 29.2009H53.5127ZM68.4968 28.7287V24.1242H78.2911C78.606 24.1242 78.8815 24.0578 79.1176 23.9274C79.3808 23.7971 79.5775 23.6126 79.7079 23.3765C79.8653 23.1404 79.944 22.8772 79.944 22.5894C79.944 22.2746 79.8653 21.9991 79.7079 21.763C79.5775 21.5268 79.3808 21.3424 79.1176 21.212C78.8815 21.0546 78.606 20.9759 78.2911 20.9759H74.5156C73.2317 20.9759 72.0633 20.7791 71.0155 20.3855C69.9923 19.965 69.1659 19.3107 68.5362 18.4178C67.9336 17.5004 67.631 16.305 67.631 14.8366C67.631 13.7076 67.9065 12.6844 68.4575 11.7669C69.0355 10.8224 69.7955 10.0747 70.74 9.52375C71.7091 8.94573 72.7717 8.65796 73.9253 8.65796H83.326V13.2624H74.4369C74.0433 13.2624 73.6891 13.3928 73.3743 13.656C73.0865 13.9191 72.9414 14.2586 72.9414 14.6792C72.9414 15.0998 73.0865 15.454 73.3743 15.7417C73.6621 16.0049 74.0163 16.1353 74.4369 16.1353H78.2124C79.6538 16.1353 80.9008 16.3591 81.9486 16.8043C82.9964 17.2249 83.8106 17.8939 84.3886 18.8114C84.9642 19.7288 85.2544 20.9365 85.2544 22.432C85.2544 23.5855 84.9666 24.6481 84.3886 25.6197C83.8106 26.5642 83.0383 27.3242 82.0667 27.9022C81.0951 28.4532 80.008 28.7287 78.8027 28.7287H68.4968ZM136.031 28.7287V24.1242H145.826C146.141 24.1242 146.416 24.0578 146.652 23.9274C146.915 23.7971 147.112 23.6126 147.242 23.3765C147.4 23.1404 147.479 22.8772 147.479 22.5894C147.479 22.2746 147.4 21.9991 147.242 21.763C147.112 21.5268 146.915 21.3424 146.652 21.212C146.416 21.0546 146.141 20.9759 145.826 20.9759H142.05C140.766 20.9759 139.598 20.7791 138.55 20.3855C137.527 19.965 136.7 19.3107 136.071 18.4178C135.468 17.5004 135.166 16.305 135.166 14.8366C135.166 13.7076 135.441 12.6844 135.992 11.7669C136.57 10.8224 137.33 10.0747 138.275 9.52375C139.246 8.94573 140.306 8.65796 141.46 8.65796H150.861V13.2624H141.971C141.578 13.2624 141.224 13.3928 140.909 13.656C140.621 13.9191 140.476 14.2586 140.476 14.6792C140.476 15.0998 140.621 15.454 140.909 15.7417C141.197 16.0049 141.551 16.1353 141.971 16.1353H145.747C147.188 16.1353 148.435 16.3591 149.483 16.8043C150.533 17.2249 151.345 17.8939 151.923 18.8114C152.501 19.7288 152.789 20.9365 152.789 22.432C152.789 23.5855 152.501 24.6481 151.923 25.6197C151.345 26.5642 150.573 27.3242 149.601 27.9022C148.63 28.4532 147.542 28.7287 146.337 28.7287H136.031ZM158.34 28.7287V13.2624H154.84V8.65796H158.34V5.70638C158.34 3.92314 158.84 2.53098 159.836 1.53482C160.859 0.511606 162.261 0 164.044 0H169.748V4.60446H164.989C164.647 4.60446 164.347 4.72252 164.084 4.95865C163.847 5.19477 163.729 5.49731 163.729 5.8638V8.65796H168.882V13.2624H163.729V28.7287H158.34ZM193.801 28.7287V14.3643C193.801 12.5811 194.3 11.1889 195.297 10.1928C196.32 9.16956 197.722 8.65796 199.505 8.65796H205.051V13.2624H200.449C200.108 13.2624 199.808 13.3805 199.544 13.6166C199.308 13.8527 199.19 14.1553 199.19 14.5218V28.7287H193.801ZM215.926 29.2009C214.091 29.2009 212.489 28.7287 211.127 27.7842C209.764 26.8397 208.702 25.5803 207.942 24.0061C207.206 22.4049 206.84 20.6487 206.84 18.7327C206.84 16.8166 207.26 14.9817 208.099 13.3805C208.965 11.7792 210.197 10.5199 211.796 9.60246C213.395 8.65796 215.311 8.1857 217.539 8.1857C219.768 8.1857 221.696 8.65796 223.243 9.60246C224.79 10.547 225.971 11.8186 226.782 13.4198C227.597 15.0211 228.002 16.792 228.002 18.7327V33.648H222.613V25.3836H222.535C222.141 26.0919 221.642 26.7339 221.039 27.3119C220.461 27.8899 219.755 28.3474 218.914 28.6893C218.075 29.0312 217.079 29.2009 215.926 29.2009ZM217.458 24.5965C218.508 24.5965 219.411 24.3333 220.173 23.8094C220.933 23.2855 221.511 22.5771 221.905 21.6842C222.326 20.7668 222.535 19.7559 222.535 18.654C222.535 17.552 222.326 16.5682 221.905 15.7024C221.511 14.8095 220.933 14.1012 220.173 13.5772C219.413 13.0533 218.508 12.7902 217.458 12.7902C216.408 12.7902 215.451 13.0533 214.666 13.5772C213.906 14.1012 213.316 14.8095 212.895 15.7024C212.502 16.5682 212.305 17.552 212.305 18.654C212.305 19.7559 212.502 20.7668 212.895 21.6842C213.316 22.5771 213.906 23.2855 214.666 23.8094C215.453 24.3333 216.383 24.5965 217.458 24.5965Z" fill="#121212"/>
<g filter="url(#filter0_i_261_43)">
<path d="M121.163 29.2206C127.001 29.2206 131.734 24.4853 131.734 18.6441C131.734 12.8029 127.001 8.06763 121.163 8.06763C115.324 8.06763 110.591 12.8029 110.591 18.6441C110.591 24.4853 115.324 29.2206 121.163 29.2206Z" fill="#397991"/>
</g>
<path fill-rule="evenodd" clip-rule="evenodd" d="M186.715 9.85087C186.552 9.72297 186.383 9.60245 186.206 9.48438C184.816 8.53988 182.993 8.06763 180.738 8.06763C178.849 8.06763 177.159 8.50053 175.664 9.36632C174.168 10.2321 172.988 11.4521 172.124 13.0263C171.258 14.6004 170.826 16.4501 170.826 18.5752C170.826 20.4642 171.285 22.1688 172.203 23.6913C173.147 25.2138 174.458 26.4191 176.136 27.3119C177.511 28.0104 179.075 28.4286 180.826 28.5614C181.825 27.0733 182.676 25.5656 183.399 24.0061H182.192C181.22 24.0061 180.342 23.8758 179.555 23.6126C178.795 23.3248 178.153 22.9042 177.626 22.3533C177.127 21.8023 176.773 21.121 176.564 20.3068H184.838C185.849 17.1585 186.437 13.742 186.71 9.85087H186.715ZM185.02 24.0061C184.329 25.5828 183.512 27.1078 182.56 28.6106H187.782V24.0061H185.02ZM186.39 20.3068C187.249 17.5102 187.79 14.5144 188.087 11.1988C188.587 11.821 188.995 12.522 189.315 13.3018C189.971 14.8759 190.299 16.6346 190.299 18.5752C190.299 18.8384 190.286 19.1533 190.259 19.5197C190.232 19.8616 190.193 20.1224 190.141 20.3068H186.39ZM184.909 16.6862H176.532C176.611 16.1623 176.741 15.6507 176.925 15.1514C177.134 14.6521 177.41 14.2069 177.752 13.8134C178.094 13.4198 178.512 13.105 179.011 12.8689C179.535 12.6327 180.125 12.5147 180.782 12.5147C181.281 12.5147 181.739 12.5811 182.16 12.7114C182.58 12.8418 182.947 13.0263 183.261 13.2624C183.576 13.4985 183.852 13.7863 184.088 14.1282C184.324 14.4701 184.509 14.8636 184.639 15.3088C184.769 15.7294 184.863 16.1869 184.914 16.6862H184.909Z" fill="#121212"/>
<path fill-rule="evenodd" clip-rule="evenodd" d="M104.108 9.85087C103.945 9.72297 103.776 9.60245 103.598 9.48438C102.209 8.53988 100.386 8.06763 98.1306 8.06763C96.2416 8.06763 94.5518 8.50053 93.0564 9.36632C91.5609 10.2321 90.3803 11.4521 89.5169 13.0263C88.6511 14.6004 88.2182 16.4501 88.2182 18.5752C88.2182 20.4642 88.6782 22.1688 89.5956 23.6913C90.5402 25.2138 91.8511 26.4191 93.5286 27.3119C94.9036 28.0104 96.4679 28.4286 98.2192 28.5614C99.2178 27.0733 100.069 25.5656 100.792 24.0061H99.5843C98.6127 24.0061 97.7346 23.8758 96.9475 23.6126C96.1875 23.3248 95.5455 22.9042 95.0192 22.3533C94.5199 21.8023 94.1657 21.121 93.9566 20.3068H102.231C103.242 17.1585 103.83 13.742 104.103 9.85087H104.108ZM102.413 24.0061C101.722 25.5828 100.905 27.1078 99.9532 28.6106H105.175V24.0061H102.415H102.413ZM103.783 20.3068C104.641 17.5102 105.182 14.5144 105.48 11.1988C105.979 11.821 106.388 12.522 106.707 13.3018C107.364 14.8759 107.691 16.6346 107.691 18.5752C107.691 18.8384 107.679 19.1533 107.652 19.5197C107.625 19.8616 107.586 20.1224 107.534 20.3068H103.783ZM102.302 16.6862H93.9246C94.0033 16.1623 94.1337 15.6507 94.3182 15.1514C94.5272 14.6521 94.8027 14.2069 95.1446 13.8134C95.4865 13.4198 95.9046 13.105 96.4039 12.8689C96.9279 12.6327 97.5182 12.5147 98.1749 12.5147C98.6742 12.5147 99.1317 12.5811 99.5523 12.7114C99.9729 12.8418 100.339 13.0263 100.654 13.2624C100.969 13.4985 101.245 13.7863 101.481 14.1282C101.717 14.4701 101.901 14.8636 102.032 15.3088C102.162 15.7294 102.255 16.1869 102.307 16.6862H102.302Z" fill="#121212"/>
<path d="M8.90198 40.9899C8.97085 40.4094 9.63496 40.1586 10.0925 39.92C11.6273 39.2583 13.2728 38.9041 14.8986 38.55C21.4314 37.2537 28.0725 36.597 34.6938 35.9575C61.1842 33.6503 87.8419 33.0772 114.421 32.9985C132.088 33.0256 149.941 33.3429 167.601 34.189C183.084 35.0474 198.661 35.7558 213.943 38.55C215.935 39.005 219.804 39.7822 219.94 40.9924C219.841 40.4242 219.175 40.2176 218.712 40.0085C217.155 39.4379 215.507 39.1796 213.877 38.9164C207.314 37.9498 200.681 37.5489 194.059 37.1603C181.331 36.4224 167.084 36.078 154.255 35.805C125.502 35.2983 96.704 35.3057 67.9482 35.9452C56.9635 36.1936 45.7376 36.5355 34.7799 37.1553C28.1586 37.5464 21.5249 37.9473 14.9625 38.914C12.9653 39.2559 9.10121 39.8068 8.89952 40.9924L8.90198 40.9899Z" fill="#121212"/>
</g>
<defs>
<filter id="filter0_i_261_43" x="110.591" y="8.06763" width="21.1431" height="21.153" filterUnits="userSpaceOnUse" color-interpolation-filters="sRGB">
<feFlood flood-opacity="0" result="BackgroundImageFix"/>
<feBlend mode="normal" in="SourceGraphic" in2="BackgroundImageFix" result="shape"/>
<feColorMatrix in="SourceAlpha" type="matrix" values="0 0 0 0 0 0 0 0 0 0 0 0 0 0 0 0 0 0 127 0" result="hardAlpha"/>
<feOffset dx="-1.96772" dy="-1.96772"/>
<feComposite in2="hardAlpha" operator="arithmetic" k2="-1" k3="1"/>
<feColorMatrix type="matrix" values="0 0 0 0 0.105 0 0 0 0 0.315 0 0 0 0 0.39375 0 0 0 1 0"/>
<feBlend mode="normal" in2="shape" result="effect1_innerShadow_261_43"/>
</filter>
<clipPath id="clip0_261_43">
<rect width="227.158" height="48" fill="white" transform="translate(0.841797)"/>
</clipPath>
</defs>
</svg>
