<svg width="1920" height="1080" viewBox="0 0 1920 1080" fill="none" xmlns="http://www.w3.org/2000/svg">
<g clip-path="url(#clip0_336_4)">
<path d="M-10.0553 45.9734C-0.716955 40.9858 5.07392 34.5846 10.427 23.7447C11.9754 20.6092 16.6124 20.4948 18.3454 23.5322C23.7754 33.0498 30.0363 39.4547 41.3127 46.2131C44.3555 48.0367 43.9866 52.792 40.7759 54.3005C30.5412 59.1091 24.4038 65.6001 18.5754 76.8605C16.889 80.1186 11.8929 79.9409 10.3823 76.5977C5.38989 65.5488 -0.468601 59.4439 -9.80126 55.0535C-13.3057 53.4048 -13.4714 47.798 -10.0553 45.9734Z" fill="url(#paint0_linear_336_4)"/>
<path d="M796.612 577.973C805.95 572.986 811.741 566.585 817.094 555.745C818.642 552.609 823.279 552.495 825.012 555.532C830.442 565.05 836.703 571.455 847.98 578.213C851.023 580.037 850.654 584.792 847.443 586.301C837.208 591.109 831.071 597.6 825.242 608.861C823.556 612.119 818.56 611.941 817.049 608.598C812.057 597.549 806.198 591.444 796.866 587.053C793.361 585.405 793.196 579.798 796.612 577.973Z" fill="url(#paint1_linear_336_4)"/>
<path d="M1227.94 661.973C1237.28 656.986 1243.07 650.585 1248.43 639.745C1249.98 636.609 1254.61 636.495 1256.35 639.532C1261.78 649.05 1268.04 655.455 1279.31 662.213C1282.36 664.037 1281.99 668.792 1278.78 670.301C1268.54 675.109 1262.4 681.6 1256.58 692.861C1254.89 696.119 1249.89 695.941 1248.38 692.598C1243.39 681.549 1237.53 675.444 1228.2 671.053C1224.69 669.405 1224.53 663.798 1227.94 661.973Z" fill="url(#paint2_linear_336_4)"/>
<path d="M150.945 931.973C160.283 926.986 166.074 920.585 171.427 909.745C172.975 906.609 177.612 906.495 179.345 909.532C184.775 919.05 191.036 925.455 202.313 932.213C205.356 934.037 204.987 938.792 201.776 940.301C191.541 945.109 185.404 951.6 179.575 962.861C177.889 966.119 172.893 965.941 171.382 962.598C166.39 951.549 160.531 945.444 151.199 941.053C147.694 939.405 147.529 933.798 150.945 931.973Z" fill="url(#paint3_linear_336_4)"/>
<path d="M537.945 234.973C547.283 229.986 553.074 223.585 558.427 212.745C559.975 209.609 564.612 209.495 566.345 212.532C571.775 222.05 578.036 228.455 589.313 235.213C592.356 237.037 591.987 241.792 588.776 243.301C578.541 248.109 572.404 254.6 566.575 265.861C564.889 269.119 559.893 268.941 558.382 265.598C553.39 254.549 547.531 248.444 538.199 244.053C534.694 242.405 534.529 236.798 537.945 234.973Z" fill="url(#paint4_linear_336_4)"/>
<path d="M1464.61 639.973C1473.95 634.986 1479.74 628.585 1485.09 617.745C1486.64 614.609 1491.28 614.495 1493.01 617.532C1498.44 627.05 1504.7 633.455 1515.98 640.213C1519.02 642.037 1518.65 646.792 1515.44 648.301C1505.21 653.109 1499.07 659.6 1493.24 670.861C1491.56 674.119 1486.56 673.941 1485.05 670.598C1480.06 659.549 1474.2 653.444 1464.87 649.053C1461.36 647.405 1461.2 641.798 1464.61 639.973Z" fill="url(#paint5_linear_336_4)"/>
<path d="M1747.28 291.973C1756.62 286.986 1762.41 280.585 1767.76 269.745C1769.31 266.609 1773.95 266.495 1775.68 269.532C1781.11 279.05 1787.37 285.455 1798.65 292.213C1801.69 294.037 1801.32 298.792 1798.11 300.301C1787.87 305.109 1781.74 311.6 1775.91 322.861C1774.22 326.119 1769.23 325.941 1767.72 322.598C1762.72 311.549 1756.86 305.444 1747.53 301.053C1744.03 299.405 1743.86 293.798 1747.28 291.973Z" fill="url(#paint6_linear_336_4)"/>
<path d="M131.945 511.973C141.283 506.986 147.074 500.584 152.427 489.745C153.975 486.609 158.612 486.495 160.345 489.532C165.775 499.05 172.036 505.455 183.313 512.213C186.356 514.037 185.987 518.792 182.776 520.3C172.541 525.109 166.404 531.6 160.575 542.86C158.889 546.118 153.893 545.941 152.382 542.598C147.39 531.549 141.531 525.444 132.199 521.053C128.694 519.405 128.529 513.798 131.945 511.973Z" fill="url(#paint7_linear_336_4)"/>
<path d="M936.278 1023.64C945.617 1018.65 951.407 1012.25 956.761 1001.41C958.309 998.276 962.946 998.161 964.679 1001.2C970.109 1010.72 976.37 1017.12 987.646 1023.88C990.689 1025.7 990.32 1030.46 987.109 1031.97C976.875 1036.78 970.737 1043.27 964.909 1054.53C963.223 1057.79 958.226 1057.61 956.716 1054.26C951.723 1043.22 945.865 1037.11 936.532 1032.72C933.028 1031.07 932.862 1025.46 936.278 1023.64Z" fill="url(#paint8_linear_336_4)"/>
<path d="M1325.94 141.973C1335.28 136.986 1341.07 130.585 1346.43 119.745C1347.98 116.609 1352.61 116.495 1354.35 119.532C1359.78 129.05 1366.04 135.455 1377.31 142.213C1380.36 144.037 1379.99 148.792 1376.78 150.301C1366.54 155.109 1360.4 161.6 1354.58 172.861C1352.89 176.119 1347.89 175.941 1346.38 172.598C1341.39 161.549 1335.53 155.444 1326.2 151.053C1322.69 149.405 1322.53 143.798 1325.94 141.973Z" fill="url(#paint9_linear_336_4)"/>
<path d="M1712.61 97.3066C1721.95 92.319 1727.74 85.9179 1733.09 75.078C1734.64 71.9424 1739.28 71.828 1741.01 74.8655C1746.44 84.3831 1752.7 90.7879 1763.98 97.5463C1767.02 99.37 1766.65 104.125 1763.44 105.634C1753.21 110.442 1747.07 116.933 1741.24 128.194C1739.56 131.452 1734.56 131.274 1733.05 127.931C1728.06 116.882 1722.2 110.777 1712.87 106.387C1709.36 104.738 1709.2 99.1312 1712.61 97.3066Z" fill="url(#paint10_linear_336_4)"/>
<path d="M1263.94 3.97338C1273.28 -1.01424 1279.07 -7.4154 1284.43 -18.2553C1285.98 -21.3908 1290.61 -21.5052 1292.35 -18.4678C1297.78 -8.95016 1304.04 -2.54535 1315.31 4.21305C1318.36 6.03673 1317.99 10.792 1314.78 12.3005C1304.54 17.1091 1298.4 23.6001 1292.58 34.8605C1290.89 38.1186 1285.89 37.9409 1284.38 34.5977C1279.39 23.5488 1273.53 17.4439 1264.2 13.0535C1260.69 11.4048 1260.53 5.79797 1263.94 3.97338Z" fill="url(#paint11_linear_336_4)"/>
<path d="M668.945 814.973C678.283 809.986 684.074 803.585 689.427 792.745C690.975 789.609 695.612 789.495 697.345 792.532C702.775 802.05 709.036 808.455 720.313 815.213C723.356 817.037 722.987 821.792 719.776 823.301C709.541 828.109 703.404 834.6 697.575 845.861C695.889 849.119 690.893 848.941 689.382 845.598C684.39 834.549 678.531 828.444 669.199 824.053C665.694 822.405 665.529 816.798 668.945 814.973Z" fill="url(#paint12_linear_336_4)"/>
<path d="M21.0763 235.755C33.2328 227.18 40.0348 216.638 46.2011 196.693C47.4092 192.785 53.29 192.684 54.6725 196.533C60.6213 213.096 67.6539 223.819 81.1674 235.942C83.2804 237.837 82.9228 241.291 80.5342 242.825C68.1649 250.768 61.2902 261.304 54.8655 281.089C53.5627 285.102 47.3441 284.953 46.194 280.894C40.4287 260.549 33.4754 250.702 21.3706 243.404C18.6136 241.742 18.4456 237.61 21.0763 235.755Z" fill="url(#paint13_linear_336_4)" fill-opacity="0.5"/>
<path d="M827.743 767.755C839.9 759.18 846.702 748.638 852.868 728.693C854.076 724.785 859.957 724.684 861.34 728.533C867.288 745.096 874.321 755.819 887.834 767.942C889.947 769.837 889.59 773.291 887.201 774.825C874.832 782.768 867.957 793.304 861.533 813.089C860.23 817.102 854.011 816.953 852.861 812.894C847.096 792.549 840.142 782.702 828.038 775.404C825.281 773.742 825.113 769.61 827.743 767.755Z" fill="url(#paint14_linear_336_4)" fill-opacity="0.5"/>
<path d="M325.076 52.7547C337.233 44.1801 344.035 33.6381 350.201 13.6932C351.409 9.78549 357.29 9.68352 358.673 13.533C364.621 30.0963 371.654 40.8187 385.167 52.9418C387.28 54.8374 386.923 58.2907 384.534 59.8246C372.165 67.7682 365.29 78.3038 358.866 98.0893C357.563 102.102 351.344 101.953 350.194 97.8943C344.429 77.5492 337.475 67.7023 325.371 60.4043C322.614 58.7421 322.446 54.6102 325.076 52.7547Z" fill="url(#paint15_linear_336_4)" fill-opacity="0.5"/>
<path d="M1131.74 584.755C1143.9 576.18 1150.7 565.638 1156.87 545.693C1158.08 541.785 1163.96 541.684 1165.34 545.533C1171.29 562.096 1178.32 572.819 1191.83 584.942C1193.95 586.837 1193.59 590.291 1191.2 591.825C1178.83 599.768 1171.96 610.304 1165.53 630.089C1164.23 634.102 1158.01 633.953 1156.86 629.894C1151.1 609.549 1144.14 599.702 1132.04 592.404C1129.28 590.742 1129.11 586.61 1131.74 584.755Z" fill="url(#paint16_linear_336_4)" fill-opacity="0.5"/>
<path d="M432.076 640.755C444.233 632.18 451.035 621.638 457.201 601.693C458.409 597.785 464.29 597.684 465.673 601.533C471.621 618.096 478.654 628.819 492.167 640.942C494.28 642.837 493.923 646.291 491.534 647.825C479.165 655.768 472.29 666.304 465.866 686.089C464.563 690.102 458.344 689.953 457.194 685.894C451.429 665.549 444.475 655.702 432.371 648.404C429.614 646.742 429.446 642.61 432.076 640.755Z" fill="url(#paint17_linear_336_4)" fill-opacity="0.5"/>
<path d="M629.076 966.755C641.233 958.18 648.035 947.638 654.201 927.693C655.409 923.785 661.29 923.684 662.673 927.533C668.621 944.096 675.654 954.819 689.167 966.942C691.28 968.837 690.923 972.291 688.534 973.825C676.165 981.768 669.29 992.304 662.866 1012.09C661.563 1016.1 655.344 1015.95 654.194 1011.89C648.429 991.549 641.475 981.702 629.371 974.404C626.614 972.742 626.446 968.61 629.076 966.755Z" fill="url(#paint18_linear_336_4)" fill-opacity="0.5"/>
<path d="M791.076 376.755C803.233 368.18 810.035 357.638 816.201 337.693C817.409 333.785 823.29 333.683 824.673 337.533C830.621 354.096 837.654 364.819 851.167 376.942C853.28 378.837 852.923 382.291 850.534 383.824C838.165 391.768 831.29 402.304 824.866 422.089C823.563 426.101 817.344 425.953 816.194 421.894C810.429 401.549 803.475 391.702 791.371 384.404C788.614 382.742 788.446 378.61 791.076 376.755Z" fill="url(#paint19_linear_336_4)" fill-opacity="0.5"/>
<path d="M1597.74 908.755C1609.9 900.18 1616.7 889.638 1622.87 869.693C1624.08 865.785 1629.96 865.684 1631.34 869.533C1637.29 886.096 1644.32 896.819 1657.83 908.942C1659.95 910.837 1659.59 914.291 1657.2 915.825C1644.83 923.768 1637.96 934.304 1631.53 954.089C1630.23 958.102 1624.01 957.953 1622.86 953.894C1617.1 933.549 1610.14 923.702 1598.04 916.404C1595.28 914.742 1595.11 910.61 1597.74 908.755Z" fill="url(#paint20_linear_336_4)" fill-opacity="0.5"/>
<path d="M1043.08 40.7547C1055.23 32.1801 1062.03 21.6381 1068.2 1.69325C1069.41 -2.21451 1075.29 -2.31648 1076.67 1.53303C1082.62 18.0963 1089.65 28.8187 1103.17 40.9418C1105.28 42.8374 1104.92 46.2907 1102.53 47.8246C1090.16 55.7682 1083.29 66.3038 1076.87 86.0893C1075.56 90.1016 1069.34 89.9529 1068.19 85.8943C1062.43 65.5492 1055.48 55.7023 1043.37 48.4043C1040.61 46.7421 1040.45 42.6102 1043.08 40.7547Z" fill="url(#paint21_linear_336_4)" fill-opacity="0.5"/>
<path d="M1849.74 572.755C1861.9 564.18 1868.7 553.638 1874.87 533.693C1876.08 529.785 1881.96 529.684 1883.34 533.533C1889.29 550.096 1896.32 560.819 1909.83 572.942C1911.95 574.837 1911.59 578.291 1909.2 579.825C1896.83 587.768 1889.96 598.304 1883.53 618.089C1882.23 622.102 1876.01 621.953 1874.86 617.894C1869.1 597.549 1862.14 587.702 1850.04 580.404C1847.28 578.742 1847.11 574.61 1849.74 572.755Z" fill="url(#paint22_linear_336_4)" fill-opacity="0.5"/>
<path d="M1272.08 851.755C1284.23 843.18 1291.03 832.638 1297.2 812.693C1298.41 808.785 1304.29 808.684 1305.67 812.533C1311.62 829.096 1318.65 839.819 1332.17 851.942C1334.28 853.837 1333.92 857.291 1331.53 858.825C1319.16 866.768 1312.29 877.304 1305.87 897.089C1304.56 901.102 1298.34 900.953 1297.19 896.894C1291.43 876.549 1284.48 866.702 1272.37 859.404C1269.61 857.742 1269.45 853.61 1272.08 851.755Z" fill="url(#paint23_linear_336_4)" fill-opacity="0.5"/>
<path d="M20.0763 793.755C32.2328 785.18 39.0348 774.638 45.2011 754.693C46.4092 750.785 52.29 750.684 53.6725 754.533C59.6213 771.096 66.6539 781.819 80.1674 793.942C82.2804 795.837 81.9228 799.291 79.5342 800.825C67.1649 808.768 60.2902 819.304 53.8655 839.089C52.5627 843.102 46.3441 842.953 45.194 838.894C39.4287 818.549 32.4754 808.702 20.3706 801.404C17.6136 799.742 17.4456 795.61 20.0763 793.755Z" fill="url(#paint24_linear_336_4)" fill-opacity="0.5"/>
<path d="M133.945 86.9734C143.283 81.9858 149.074 75.5846 154.427 64.7447C155.975 61.6092 160.612 61.4948 162.345 64.5322C167.775 74.0498 174.036 80.4547 185.313 87.2131C188.356 89.0367 187.987 93.792 184.776 95.3005C174.541 100.109 168.404 106.6 162.575 117.861C160.889 121.119 155.893 120.941 154.382 117.598C149.39 106.549 143.531 100.444 134.199 96.0535C130.694 94.4048 130.529 88.798 133.945 86.9734Z" stroke="url(#paint25_linear_336_4)"/>
<path d="M940.612 618.973C949.95 613.986 955.741 607.585 961.094 596.745C962.642 593.609 967.279 593.495 969.012 596.532C974.442 606.05 980.703 612.455 991.98 619.213C995.023 621.037 994.654 625.792 991.443 627.301C981.208 632.109 975.071 638.6 969.242 649.861C967.556 653.119 962.56 652.941 961.049 649.598C956.057 638.549 950.198 632.444 940.866 628.053C937.361 626.405 937.196 620.798 940.612 618.973Z" stroke="url(#paint26_linear_336_4)"/>
<path d="M537.945 397.973C547.283 392.986 553.074 386.584 558.427 375.745C559.975 372.609 564.612 372.495 566.345 375.532C571.775 385.05 578.036 391.455 589.313 398.213C592.356 400.037 591.987 404.792 588.776 406.3C578.541 411.109 572.404 417.6 566.575 428.86C564.889 432.118 559.893 431.941 558.382 428.598C553.39 417.549 547.531 411.444 538.199 407.053C534.694 405.405 534.529 399.798 537.945 397.973Z" stroke="url(#paint27_linear_336_4)"/>
<path d="M1344.61 929.973C1353.95 924.986 1359.74 918.585 1365.09 907.745C1366.64 904.609 1371.28 904.495 1373.01 907.532C1378.44 917.05 1384.7 923.455 1395.98 930.213C1399.02 932.037 1398.65 936.792 1395.44 938.301C1385.21 943.109 1379.07 949.6 1373.24 960.861C1371.56 964.119 1366.56 963.941 1365.05 960.598C1360.06 949.549 1354.2 943.444 1344.87 939.053C1341.36 937.405 1341.2 931.798 1344.61 929.973Z" stroke="url(#paint28_linear_336_4)"/>
<path d="M704.945 45.9734C714.283 40.9858 720.074 34.5846 725.427 23.7447C726.975 20.6092 731.612 20.4948 733.345 23.5322C738.775 33.0498 745.036 39.4547 756.313 46.2131C759.356 48.0367 758.987 52.792 755.776 54.3005C745.541 59.1091 739.404 65.6001 733.575 76.8605C731.889 80.1186 726.893 79.9409 725.382 76.5977C720.39 65.5488 714.531 59.4439 705.199 55.0535C701.694 53.4048 701.529 47.798 704.945 45.9734Z" stroke="url(#paint29_linear_336_4)"/>
<path d="M1511.61 577.973C1520.95 572.986 1526.74 566.585 1532.09 555.745C1533.64 552.609 1538.28 552.495 1540.01 555.532C1545.44 565.05 1551.7 571.455 1562.98 578.213C1566.02 580.037 1565.65 584.792 1562.44 586.301C1552.21 591.109 1546.07 597.6 1540.24 608.861C1538.56 612.119 1533.56 611.941 1532.05 608.598C1527.06 597.549 1521.2 591.444 1511.87 587.053C1508.36 585.405 1508.2 579.798 1511.61 577.973Z" stroke="url(#paint30_linear_336_4)"/>
<path d="M258.945 582.973C268.283 577.986 274.074 571.585 279.427 560.745C280.975 557.609 285.612 557.495 287.345 560.532C292.775 570.05 299.036 576.455 310.313 583.213C313.356 585.037 312.987 589.792 309.776 591.301C299.541 596.109 293.404 602.6 287.575 613.861C285.889 617.119 280.893 616.941 279.382 613.598C274.39 602.549 268.531 596.444 259.199 592.053C255.694 590.405 255.529 584.798 258.945 582.973Z" stroke="url(#paint31_linear_336_4)"/>
<path d="M60.9447 639.973C70.283 634.986 76.0739 628.585 81.427 617.745C82.9754 614.609 87.6124 614.495 89.3454 617.532C94.7754 627.05 101.036 633.455 112.313 640.213C115.356 642.037 114.987 646.792 111.776 648.301C101.541 653.109 95.4038 659.6 89.5754 670.861C87.889 674.119 82.8929 673.941 81.3823 670.598C76.3899 659.549 70.5314 653.444 61.1987 649.053C57.6943 647.405 57.5286 641.798 60.9447 639.973Z" stroke="url(#paint32_linear_336_4)"/>
<path d="M795.945 931.973C805.283 926.986 811.074 920.585 816.427 909.745C817.975 906.609 822.612 906.495 824.345 909.532C829.775 919.05 836.036 925.455 847.313 932.213C850.356 934.037 849.987 938.792 846.776 940.301C836.541 945.109 830.404 951.6 824.575 962.861C822.889 966.119 817.893 965.941 816.382 962.598C811.39 951.549 805.531 945.444 796.199 941.053C792.694 939.405 792.529 933.798 795.945 931.973Z" stroke="url(#paint33_linear_336_4)"/>
<path d="M1047.94 710.973C1057.28 705.986 1063.07 699.585 1068.43 688.745C1069.98 685.609 1074.61 685.495 1076.35 688.532C1081.78 698.05 1088.04 704.455 1099.31 711.213C1102.36 713.037 1101.99 717.792 1098.78 719.301C1088.54 724.109 1082.4 730.6 1076.58 741.861C1074.89 745.119 1069.89 744.941 1068.38 741.598C1063.39 730.549 1057.53 724.444 1048.2 720.053C1044.69 718.405 1044.53 712.798 1047.94 710.973Z" stroke="url(#paint34_linear_336_4)"/>
<path d="M976.945 256.973C986.283 251.986 992.074 245.585 997.427 234.745C998.975 231.609 1003.61 231.495 1005.35 234.532C1010.78 244.05 1017.04 250.455 1028.31 257.213C1031.36 259.037 1030.99 263.792 1027.78 265.301C1017.54 270.109 1011.4 276.6 1005.58 287.861C1003.89 291.119 998.893 290.941 997.382 287.598C992.39 276.549 986.531 270.444 977.199 266.053C973.694 264.405 973.529 258.798 976.945 256.973Z" stroke="url(#paint35_linear_336_4)"/>
<path d="M1783.61 788.973C1792.95 783.986 1798.74 777.585 1804.09 766.745C1805.64 763.609 1810.28 763.495 1812.01 766.532C1817.44 776.05 1823.7 782.455 1834.98 789.213C1838.02 791.037 1837.65 795.792 1834.44 797.301C1824.21 802.109 1818.07 808.6 1812.24 819.861C1810.56 823.119 1805.56 822.941 1804.05 819.598C1799.06 808.549 1793.2 802.444 1783.87 798.053C1780.36 796.405 1780.2 790.798 1783.61 788.973Z" stroke="url(#paint36_linear_336_4)"/>
</g>
<defs>
<linearGradient id="paint0_linear_336_4" x1="0.166502" y1="67.3335" x2="34.6665" y2="32.8335" gradientUnits="userSpaceOnUse">
<stop stop-color="#929292"/>
<stop offset="1" stop-color="white"/>
</linearGradient>
<linearGradient id="paint1_linear_336_4" x1="806.833" y1="599.333" x2="841.333" y2="564.833" gradientUnits="userSpaceOnUse">
<stop stop-color="#929292"/>
<stop offset="1" stop-color="white"/>
</linearGradient>
<linearGradient id="paint2_linear_336_4" x1="1238.17" y1="683.333" x2="1272.67" y2="648.833" gradientUnits="userSpaceOnUse">
<stop stop-color="#929292"/>
<stop offset="1" stop-color="white"/>
</linearGradient>
<linearGradient id="paint3_linear_336_4" x1="161.167" y1="953.333" x2="195.667" y2="918.833" gradientUnits="userSpaceOnUse">
<stop stop-color="#929292"/>
<stop offset="1" stop-color="white"/>
</linearGradient>
<linearGradient id="paint4_linear_336_4" x1="548.167" y1="256.333" x2="582.667" y2="221.833" gradientUnits="userSpaceOnUse">
<stop stop-color="#929292"/>
<stop offset="1" stop-color="white"/>
</linearGradient>
<linearGradient id="paint5_linear_336_4" x1="1474.83" y1="661.333" x2="1509.33" y2="626.833" gradientUnits="userSpaceOnUse">
<stop stop-color="#929292"/>
<stop offset="1" stop-color="white"/>
</linearGradient>
<linearGradient id="paint6_linear_336_4" x1="1757.5" y1="313.333" x2="1792" y2="278.833" gradientUnits="userSpaceOnUse">
<stop stop-color="#929292"/>
<stop offset="1" stop-color="white"/>
</linearGradient>
<linearGradient id="paint7_linear_336_4" x1="142.167" y1="533.333" x2="176.667" y2="498.833" gradientUnits="userSpaceOnUse">
<stop stop-color="#929292"/>
<stop offset="1" stop-color="white"/>
</linearGradient>
<linearGradient id="paint8_linear_336_4" x1="946.5" y1="1045" x2="981" y2="1010.5" gradientUnits="userSpaceOnUse">
<stop stop-color="#929292"/>
<stop offset="1" stop-color="white"/>
</linearGradient>
<linearGradient id="paint9_linear_336_4" x1="1336.17" y1="163.333" x2="1370.67" y2="128.833" gradientUnits="userSpaceOnUse">
<stop stop-color="#929292"/>
<stop offset="1" stop-color="white"/>
</linearGradient>
<linearGradient id="paint10_linear_336_4" x1="1722.83" y1="118.667" x2="1757.33" y2="84.1667" gradientUnits="userSpaceOnUse">
<stop stop-color="#929292"/>
<stop offset="1" stop-color="white"/>
</linearGradient>
<linearGradient id="paint11_linear_336_4" x1="1274.17" y1="25.3335" x2="1308.67" y2="-9.1665" gradientUnits="userSpaceOnUse">
<stop stop-color="#929292"/>
<stop offset="1" stop-color="white"/>
</linearGradient>
<linearGradient id="paint12_linear_336_4" x1="679.167" y1="836.333" x2="713.667" y2="801.833" gradientUnits="userSpaceOnUse">
<stop stop-color="#929292"/>
<stop offset="1" stop-color="white"/>
</linearGradient>
<linearGradient id="paint13_linear_336_4" x1="36.1665" y1="266.559" x2="86.1241" y2="235.715" gradientUnits="userSpaceOnUse">
<stop stop-color="#929292"/>
<stop offset="1" stop-color="white"/>
</linearGradient>
<linearGradient id="paint14_linear_336_4" x1="842.833" y1="798.559" x2="892.791" y2="767.715" gradientUnits="userSpaceOnUse">
<stop stop-color="#929292"/>
<stop offset="1" stop-color="white"/>
</linearGradient>
<linearGradient id="paint15_linear_336_4" x1="340.167" y1="83.5589" x2="390.124" y2="52.7155" gradientUnits="userSpaceOnUse">
<stop stop-color="#929292"/>
<stop offset="1" stop-color="white"/>
</linearGradient>
<linearGradient id="paint16_linear_336_4" x1="1146.83" y1="615.559" x2="1196.79" y2="584.715" gradientUnits="userSpaceOnUse">
<stop stop-color="#929292"/>
<stop offset="1" stop-color="white"/>
</linearGradient>
<linearGradient id="paint17_linear_336_4" x1="447.167" y1="671.559" x2="497.124" y2="640.715" gradientUnits="userSpaceOnUse">
<stop stop-color="#929292"/>
<stop offset="1" stop-color="white"/>
</linearGradient>
<linearGradient id="paint18_linear_336_4" x1="644.167" y1="997.559" x2="694.124" y2="966.715" gradientUnits="userSpaceOnUse">
<stop stop-color="#929292"/>
<stop offset="1" stop-color="white"/>
</linearGradient>
<linearGradient id="paint19_linear_336_4" x1="806.167" y1="407.559" x2="856.124" y2="376.715" gradientUnits="userSpaceOnUse">
<stop stop-color="#929292"/>
<stop offset="1" stop-color="white"/>
</linearGradient>
<linearGradient id="paint20_linear_336_4" x1="1612.83" y1="939.559" x2="1662.79" y2="908.715" gradientUnits="userSpaceOnUse">
<stop stop-color="#929292"/>
<stop offset="1" stop-color="white"/>
</linearGradient>
<linearGradient id="paint21_linear_336_4" x1="1058.17" y1="71.5589" x2="1108.12" y2="40.7155" gradientUnits="userSpaceOnUse">
<stop stop-color="#929292"/>
<stop offset="1" stop-color="white"/>
</linearGradient>
<linearGradient id="paint22_linear_336_4" x1="1864.83" y1="603.559" x2="1914.79" y2="572.715" gradientUnits="userSpaceOnUse">
<stop stop-color="#929292"/>
<stop offset="1" stop-color="white"/>
</linearGradient>
<linearGradient id="paint23_linear_336_4" x1="1287.17" y1="882.559" x2="1337.12" y2="851.715" gradientUnits="userSpaceOnUse">
<stop stop-color="#929292"/>
<stop offset="1" stop-color="white"/>
</linearGradient>
<linearGradient id="paint24_linear_336_4" x1="35.1665" y1="824.559" x2="85.1241" y2="793.715" gradientUnits="userSpaceOnUse">
<stop stop-color="#929292"/>
<stop offset="1" stop-color="white"/>
</linearGradient>
<linearGradient id="paint25_linear_336_4" x1="174.667" y1="75.3335" x2="143.666" y2="106.334" gradientUnits="userSpaceOnUse">
<stop stop-color="#929292"/>
<stop offset="1" stop-color="white"/>
</linearGradient>
<linearGradient id="paint26_linear_336_4" x1="981.333" y1="607.334" x2="950.333" y2="638.334" gradientUnits="userSpaceOnUse">
<stop stop-color="#929292"/>
<stop offset="1" stop-color="white"/>
</linearGradient>
<linearGradient id="paint27_linear_336_4" x1="578.667" y1="386.333" x2="547.666" y2="417.333" gradientUnits="userSpaceOnUse">
<stop stop-color="#929292"/>
<stop offset="1" stop-color="white"/>
</linearGradient>
<linearGradient id="paint28_linear_336_4" x1="1385.33" y1="918.334" x2="1354.33" y2="949.334" gradientUnits="userSpaceOnUse">
<stop stop-color="#929292"/>
<stop offset="1" stop-color="white"/>
</linearGradient>
<linearGradient id="paint29_linear_336_4" x1="745.667" y1="34.3335" x2="714.666" y2="65.3335" gradientUnits="userSpaceOnUse">
<stop stop-color="#929292"/>
<stop offset="1" stop-color="white"/>
</linearGradient>
<linearGradient id="paint30_linear_336_4" x1="1552.33" y1="566.334" x2="1521.33" y2="597.334" gradientUnits="userSpaceOnUse">
<stop stop-color="#929292"/>
<stop offset="1" stop-color="white"/>
</linearGradient>
<linearGradient id="paint31_linear_336_4" x1="299.667" y1="571.334" x2="268.666" y2="602.334" gradientUnits="userSpaceOnUse">
<stop stop-color="#929292"/>
<stop offset="1" stop-color="white"/>
</linearGradient>
<linearGradient id="paint32_linear_336_4" x1="101.667" y1="628.334" x2="70.6665" y2="659.334" gradientUnits="userSpaceOnUse">
<stop stop-color="#929292"/>
<stop offset="1" stop-color="white"/>
</linearGradient>
<linearGradient id="paint33_linear_336_4" x1="836.667" y1="920.334" x2="805.666" y2="951.334" gradientUnits="userSpaceOnUse">
<stop stop-color="#929292"/>
<stop offset="1" stop-color="white"/>
</linearGradient>
<linearGradient id="paint34_linear_336_4" x1="1088.67" y1="699.334" x2="1057.67" y2="730.334" gradientUnits="userSpaceOnUse">
<stop stop-color="#929292"/>
<stop offset="1" stop-color="white"/>
</linearGradient>
<linearGradient id="paint35_linear_336_4" x1="1017.67" y1="245.334" x2="986.666" y2="276.334" gradientUnits="userSpaceOnUse">
<stop stop-color="#929292"/>
<stop offset="1" stop-color="white"/>
</linearGradient>
<linearGradient id="paint36_linear_336_4" x1="1824.33" y1="777.334" x2="1793.33" y2="808.334" gradientUnits="userSpaceOnUse">
<stop stop-color="#929292"/>
<stop offset="1" stop-color="white"/>
</linearGradient>
<clipPath id="clip0_336_4">
<rect width="1920" height="1080" fill="white"/>
</clipPath>
</defs>
</svg>
