<svg width="924" height="196" viewBox="0 0 924 196" fill="none" xmlns="http://www.w3.org/2000/svg">
<g clip-path="url(#clip0_294_437)">
<path d="M77.09 118.56C70.8 118.56 65.1 117.12 59.98 114.24C54.97 111.36 51.02 107.41 48.15 102.4C45.27 97.39 43.83 91.63 43.83 85.12V33.6C43.83 31.68 43.35 29.92 42.39 28.32C41.43 26.72 40.15 25.44 38.55 24.48C36.95 23.52 35.19 23.04 33.27 23.04C31.35 23.04 29.59 23.52 27.99 24.48C26.5 25.44 25.27 26.72 24.31 28.32C23.35 29.92 22.87 31.68 22.87 33.6V136.8H0V36.32C0 30.13 1.39 24.53 4.16 19.52C6.93 14.51 10.82 10.51 15.83 7.52C20.84 4.43 26.65 2.88 33.26 2.88C39.87 2.88 45.84 4.43 50.85 7.52C55.86 10.51 59.75 14.51 62.52 19.52C65.29 24.53 66.68 30.13 66.68 36.32V87.84C66.68 89.76 67.16 91.52 68.12 93.12C69.08 94.72 70.31 96 71.8 96.96C73.4 97.92 75.16 98.4 77.08 98.4C79 98.4 80.76 97.92 82.36 96.96C83.96 96 85.24 94.72 86.2 93.12C87.16 91.52 87.64 89.76 87.64 87.84V36.32C87.64 30.13 89.03 24.53 91.8 19.52C94.57 14.51 98.46 10.51 103.47 7.52C108.59 4.43 114.45 2.88 121.06 2.88C127.67 2.88 133.59 4.43 138.49 7.52C143.5 10.51 147.39 14.51 150.16 19.52C152.93 24.53 154.32 30.13 154.32 36.32V116.8H131.45V33.6C131.45 31.68 130.97 29.92 130.01 28.32C129.16 26.72 127.93 25.44 126.33 24.48C124.73 23.52 122.97 23.04 121.05 23.04C119.13 23.04 117.37 23.52 115.77 24.48C114.17 25.44 112.89 26.72 111.93 28.32C110.97 29.92 110.49 31.68 110.49 33.6V85.12C110.49 91.63 109 97.39 106.01 102.4C103.13 107.41 99.19 111.36 94.18 114.24C89.17 117.12 83.46 118.56 77.07 118.56H77.09ZM214.14 118.72C205.82 118.72 198.68 117.07 192.71 113.76C186.74 110.45 182.15 106.03 178.96 100.48C175.87 94.93 174.32 88.8 174.32 82.08V35.2H196.23V82.08C196.23 85.39 197.03 88.43 198.63 91.2C200.23 93.87 202.36 96 205.03 97.6C207.8 99.2 210.84 100 214.15 100C217.46 100 220.44 99.2 223.11 97.6C225.88 96 228.07 93.87 229.67 91.2C231.27 88.43 232.07 85.39 232.07 82.08V35.2H253.98V82.08C253.98 88.8 252.38 94.93 249.18 100.48C246.09 106.03 241.56 110.45 235.59 113.76C229.73 117.07 222.58 118.72 214.16 118.72H214.14ZM275.06 116.8V98.08H314.88C316.16 98.08 317.28 97.81 318.24 97.28C319.31 96.75 320.11 96 320.64 95.04C321.28 94.08 321.6 93.01 321.6 91.84C321.6 90.56 321.28 89.44 320.64 88.48C320.11 87.52 319.31 86.77 318.24 86.24C317.28 85.6 316.16 85.28 314.88 85.28H299.53C294.31 85.28 289.56 84.48 285.3 82.88C281.14 81.17 277.78 78.51 275.22 74.88C272.77 71.15 271.54 66.29 271.54 60.32C271.54 55.73 272.66 51.57 274.9 47.84C277.25 44 280.34 40.96 284.18 38.72C288.12 36.37 292.44 35.2 297.13 35.2H335.35V53.92H299.21C297.61 53.92 296.17 54.45 294.89 55.52C293.72 56.59 293.13 57.97 293.13 59.68C293.13 61.39 293.72 62.83 294.89 64C296.06 65.07 297.5 65.6 299.21 65.6H314.56C320.42 65.6 325.49 66.51 329.75 68.32C334.01 70.03 337.32 72.75 339.67 76.48C342.01 80.21 343.19 85.12 343.19 91.2C343.19 95.89 342.02 100.21 339.67 104.16C337.32 108 334.18 111.09 330.23 113.44C326.28 115.68 321.86 116.8 316.96 116.8H275.06ZM549.63 116.8V98.08H589.45C590.73 98.08 591.85 97.81 592.81 97.28C593.88 96.75 594.68 96 595.21 95.04C595.85 94.08 596.17 93.01 596.17 91.84C596.17 90.56 595.85 89.44 595.21 88.48C594.68 87.52 593.88 86.77 592.81 86.24C591.85 85.6 590.73 85.28 589.45 85.28H574.1C568.88 85.28 564.13 84.48 559.87 82.88C555.71 81.17 552.35 78.51 549.79 74.88C547.34 71.15 546.11 66.29 546.11 60.32C546.11 55.73 547.23 51.57 549.47 47.84C551.82 44 554.91 40.96 558.75 38.72C562.7 36.37 567.01 35.2 571.7 35.2H609.92V53.92H573.78C572.18 53.92 570.74 54.45 569.46 55.52C568.29 56.59 567.7 57.97 567.7 59.68C567.7 61.39 568.29 62.83 569.46 64C570.63 65.07 572.07 65.6 573.78 65.6H589.13C594.99 65.6 600.06 66.51 604.32 68.32C608.59 70.03 611.89 72.75 614.24 76.48C616.59 80.21 617.76 85.12 617.76 91.2C617.76 95.89 616.59 100.21 614.24 104.16C611.89 108 608.75 111.09 604.8 113.44C600.85 115.68 596.43 116.8 591.53 116.8H549.63ZM640.33 116.8V53.92H626.1V35.2H640.33V23.2C640.33 15.95 642.36 10.29 646.41 6.24C650.57 2.08 656.27 0 663.52 0H686.71V18.72H667.36C665.97 18.72 664.75 19.2 663.68 20.16C662.72 21.12 662.24 22.35 662.24 23.84V35.2H683.19V53.92H662.24V116.8H640.33ZM784.5 116.8V58.4C784.5 51.15 786.53 45.49 790.58 41.44C794.74 37.28 800.44 35.2 807.69 35.2H830.24V53.92H811.53C810.14 53.92 808.92 54.4 807.85 55.36C806.89 56.32 806.41 57.55 806.41 59.04V116.8H784.5ZM874.45 118.72C866.99 118.72 860.48 116.8 854.94 112.96C849.4 109.12 845.08 104 841.99 97.6C839 91.09 837.51 83.95 837.51 76.16C837.51 68.37 839.22 60.91 842.63 54.4C846.15 47.89 851.16 42.77 857.66 39.04C864.16 35.2 871.95 33.28 881.01 33.28C890.07 33.28 897.91 35.2 904.2 39.04C910.49 42.88 915.29 48.05 918.59 54.56C921.9 61.07 923.55 68.27 923.55 76.16V136.8H901.64V103.2H901.32C899.72 106.08 897.69 108.69 895.24 111.04C892.89 113.39 890.02 115.25 886.6 116.64C883.19 118.03 879.14 118.72 874.45 118.72ZM880.68 100C884.95 100 888.62 98.93 891.72 96.8C894.81 94.67 897.16 91.79 898.76 88.16C900.47 84.43 901.32 80.32 901.32 75.84C901.32 71.36 900.47 67.36 898.76 63.84C897.16 60.21 894.81 57.33 891.72 55.2C888.63 53.07 884.95 52 880.68 52C876.41 52 872.52 53.07 869.33 55.2C866.24 57.33 863.84 60.21 862.13 63.84C860.53 67.36 859.73 71.36 859.73 75.84C859.73 80.32 860.53 84.43 862.13 88.16C863.84 91.79 866.24 94.67 869.33 96.8C872.53 98.93 876.31 100 880.68 100Z" fill="white"/>
<g filter="url(#filter0_i_294_437)">
<path d="M489.18 118.8C512.917 118.8 532.16 99.5483 532.16 75.8001C532.16 52.0518 512.917 32.8 489.18 32.8C465.443 32.8 446.2 52.0518 446.2 75.8001C446.2 99.5483 465.443 118.8 489.18 118.8Z" fill="#397991"/>
</g>
<path fill-rule="evenodd" clip-rule="evenodd" d="M755.69 40.05C755.03 39.53 754.34 39.04 753.62 38.56C747.97 34.72 740.56 32.8 731.39 32.8C723.71 32.8 716.84 34.56 710.76 38.08C704.68 41.6 699.88 46.56 696.37 52.96C692.85 59.36 691.09 66.88 691.09 75.52C691.09 83.2 692.96 90.13 696.69 96.32C700.53 102.51 705.86 107.41 712.68 111.04C718.27 113.88 724.63 115.58 731.75 116.12C735.81 110.07 739.27 103.94 742.21 97.6H737.3C733.35 97.6 729.78 97.07 726.58 96C723.49 94.83 720.88 93.12 718.74 90.88C716.71 88.64 715.27 85.87 714.42 82.56H748.06C752.17 69.76 754.56 55.87 755.67 40.05H755.69ZM748.8 97.6C745.99 104.01 742.67 110.21 738.8 116.32H760.03V97.6H748.8ZM754.37 82.56C757.86 71.19 760.06 59.01 761.27 45.53C763.3 48.06 764.96 50.91 766.26 54.08C768.93 60.48 770.26 67.63 770.26 75.52C770.26 76.59 770.21 77.87 770.1 79.36C769.99 80.75 769.83 81.81 769.62 82.56H754.37ZM748.35 67.84H714.29C714.61 65.71 715.14 63.63 715.89 61.6C716.74 59.57 717.86 57.76 719.25 56.16C720.64 54.56 722.34 53.28 724.37 52.32C726.5 51.36 728.9 50.88 731.57 50.88C733.6 50.88 735.46 51.15 737.17 51.68C738.88 52.21 740.37 52.96 741.65 53.92C742.93 54.88 744.05 56.05 745.01 57.44C745.97 58.83 746.72 60.43 747.25 62.24C747.78 63.95 748.16 65.81 748.37 67.84H748.35Z" fill="white"/>
<path fill-rule="evenodd" clip-rule="evenodd" d="M419.84 40.05C419.18 39.53 418.49 39.04 417.77 38.56C412.12 34.72 404.71 32.8 395.54 32.8C387.86 32.8 380.99 34.56 374.91 38.08C368.83 41.6 364.03 46.56 360.52 52.96C357 59.36 355.24 66.88 355.24 75.52C355.24 83.2 357.11 90.13 360.84 96.32C364.68 102.51 370.01 107.41 376.83 111.04C382.42 113.88 388.78 115.58 395.9 116.12C399.96 110.07 403.42 103.94 406.36 97.6H401.45C397.5 97.6 393.93 97.07 390.73 96C387.64 94.83 385.03 93.12 382.89 90.88C380.86 88.64 379.42 85.87 378.57 82.56H412.21C416.32 69.76 418.71 55.87 419.82 40.05H419.84ZM412.95 97.6C410.14 104.01 406.82 110.21 402.95 116.32H424.18V97.6H412.96H412.95ZM418.52 82.56C422.01 71.19 424.21 59.01 425.42 45.53C427.45 48.06 429.11 50.91 430.41 54.08C433.08 60.48 434.41 67.63 434.41 75.52C434.41 76.59 434.36 77.87 434.25 79.36C434.14 80.75 433.98 81.81 433.77 82.56H418.52ZM412.5 67.84H378.44C378.76 65.71 379.29 63.63 380.04 61.6C380.89 59.57 382.01 57.76 383.4 56.16C384.79 54.56 386.49 53.28 388.52 52.32C390.65 51.36 393.05 50.88 395.72 50.88C397.75 50.88 399.61 51.15 401.32 51.68C403.03 52.21 404.52 52.96 405.8 53.92C407.08 54.88 408.2 56.05 409.16 57.44C410.12 58.83 410.87 60.43 411.4 62.24C411.93 63.95 412.31 65.81 412.52 67.84H412.5Z" fill="white"/>
<path d="M32.7698 166.65C33.0498 164.29 35.7498 163.27 37.6098 162.3C43.8498 159.61 50.5398 158.17 57.1498 156.73C83.7098 151.46 110.71 148.79 137.63 146.19C245.33 136.81 353.71 134.48 461.77 134.16C533.6 134.27 606.18 135.56 677.98 139C740.93 142.49 804.26 145.37 866.39 156.73C874.49 158.58 890.22 161.74 890.77 166.66C890.37 164.35 887.66 163.51 885.78 162.66C879.45 160.34 872.75 159.29 866.12 158.22C839.44 154.29 812.47 152.66 785.55 151.08C733.8 148.08 675.88 146.68 623.72 145.57C506.82 143.51 389.74 143.54 272.83 146.14C228.17 147.15 182.53 148.54 137.98 151.06C111.06 152.65 84.0898 154.28 57.4098 158.21C49.2898 159.6 33.5798 161.84 32.7598 166.66L32.7698 166.65Z" fill="white"/>
</g>
<defs>
<filter id="filter0_i_294_437" x="446.2" y="32.8" width="85.96" height="86" filterUnits="userSpaceOnUse" color-interpolation-filters="sRGB">
<feFlood flood-opacity="0" result="BackgroundImageFix"/>
<feBlend mode="normal" in="SourceGraphic" in2="BackgroundImageFix" result="shape"/>
<feColorMatrix in="SourceAlpha" type="matrix" values="0 0 0 0 0 0 0 0 0 0 0 0 0 0 0 0 0 0 127 0" result="hardAlpha"/>
<feOffset dx="-8" dy="-8"/>
<feComposite in2="hardAlpha" operator="arithmetic" k2="-1" k3="1"/>
<feColorMatrix type="matrix" values="0 0 0 0 0.105 0 0 0 0 0.315 0 0 0 0 0.39375 0 0 0 1 0"/>
<feBlend mode="normal" in2="shape" result="effect1_innerShadow_294_437"/>
</filter>
<clipPath id="clip0_294_437">
<rect width="923.54" height="195.15" fill="white"/>
</clipPath>
</defs>
</svg>
